<svg version="1.1" xmlns="http://www.w3.org/2000/svg" xmlns:xlink="http://www.w3.org/1999/xlink" width="69.5" height="69.5" viewBox="0,0,69.5,69.5"><g transform="translate(-205.25,-145.25)"><g data-paper-data="{&quot;isPaintingLayer&quot;:true}" fill-rule="nonzero" stroke-linecap="butt" stroke-linejoin="miter" stroke-dasharray="" stroke-dashoffset="0" style="mix-blend-mode: normal"><path d="M206.25,180c0,-18.63961 15.11039,-33.75 33.75,-33.75c18.63961,0 33.75,15.11039 33.75,33.75c0,18.63961 -15.11039,33.75 -33.75,33.75c-18.63961,0 -33.75,-15.11039 -33.75,-33.75zM240.28824,189.97863c5.52284,0 10,-4.47716 10,-10c0,-5.52284 -4.47716,-10 -10,-10c-5.52284,0 -10,4.47716 -10,10c0,5.52284 4.47716,10 10,10z" fill="#d0d0d0" stroke="#909090" stroke-width="2" stroke-miterlimit="10"/><path d="M243.67106,163.12597v-2.91527h3.05689v2.91527z" fill-opacity="0.82178" fill="#35c0ed" stroke="#030303" stroke-width="0" stroke-miterlimit="4"/><path d="M243.67106,159.81001v-2.91527h3.05689v2.91527z" fill-opacity="0.82178" fill="#35c0ed" stroke="#030303" stroke-width="0" stroke-miterlimit="4"/><path d="M243.67106,156.49406v-2.91527h3.05689v2.91527z" fill-opacity="0.82178" fill="#35c0ed" stroke="#030303" stroke-width="0" stroke-miterlimit="4"/><path d="M243.67106,153.1781v-2.91527h3.05689v2.91527z" fill-opacity="0.82178" fill="#35c0ed" stroke="#030303" stroke-width="0" stroke-miterlimit="4"/><path d="M233.23992,199.60141v-2.91526h3.05689v2.91526z" fill-opacity="0.82178" fill="#35c0ed" stroke="#030303" stroke-width="0" stroke-miterlimit="4"/><path d="M236.71697,199.60141v-2.91526h3.05689v2.91526z" fill-opacity="0.82178" fill="#35c0ed" stroke="#030303" stroke-width="0" stroke-miterlimit="4"/><path d="M233.23992,202.91736v-2.91527h3.05689v2.91527z" fill-opacity="0.82178" fill="#35c0ed" stroke="#030303" stroke-width="0" stroke-miterlimit="4"/><path d="M236.71697,202.91736v-2.91527h3.05689v2.91527z" fill-opacity="0.82178" fill="#35c0ed" stroke="#030303" stroke-width="0" stroke-miterlimit="4"/><path d="M233.23992,206.2334v-2.91527h3.05689v2.91527z" fill-opacity="0.82178" fill="#35c0ed" stroke="#030303" stroke-width="0" stroke-miterlimit="4"/><path d="M236.71697,206.2334v-2.91527h3.05689v2.91527z" fill-opacity="0.82178" fill="#35c0ed" stroke="#030303" stroke-width="0" stroke-miterlimit="4"/><path d="M243.67106,196.28553v-2.91527h3.05689v2.91527z" fill-opacity="0.82178" fill="#35c0ed" stroke="#030303" stroke-width="0" stroke-miterlimit="4"/><path d="M243.67106,192.96954v-2.91527h3.05689v2.91527z" fill-opacity="0.82178" fill="#35c0ed" stroke="#030303" stroke-width="0" stroke-miterlimit="4"/><path d="M226.28583,199.60141v-2.91526h3.05689v2.91526z" fill-opacity="0.82178" fill="#35c0ed" stroke="#030303" stroke-width="0" stroke-miterlimit="4"/><path d="M243.72201,149.81356v-2.81804h2.95495v2.81804z" fill-opacity="0.82178" fill="#35c0ed" stroke="#030303" stroke-width="0" stroke-miterlimit="4"/><path d="M226.33679,202.86883v-2.81804h2.95495v2.81804z" fill-opacity="0.82178" fill="#35c0ed" stroke="#030303" stroke-width="0" stroke-miterlimit="4"/><path d="M247.19906,156.44545v-2.81804h2.95495v2.81804z" fill-opacity="0.82178" fill="#35c0ed" stroke="#030303" stroke-width="0" stroke-miterlimit="4"/><path d="M226.33679,206.18474v-2.81804h2.95495v2.81804z" fill-opacity="0.82178" fill="#35c0ed" stroke="#030303" stroke-width="0" stroke-miterlimit="4"/><path d="M247.19906,159.76141v-2.81804h2.95495v2.81804z" fill-opacity="0.82178" fill="#35c0ed" stroke="#030303" stroke-width="0" stroke-miterlimit="4"/><path d="M243.72201,166.39329v-2.81804h2.95495v2.81804z" fill-opacity="0.82178" fill="#35c0ed" stroke="#030303" stroke-width="0" stroke-miterlimit="4"/><path d="M250.67612,159.76141v-2.81804h2.95495v2.81804z" fill-opacity="0.82178" fill="#35c0ed" stroke="#030303" stroke-width="0" stroke-miterlimit="4"/><path d="M243.72202,179.6571v-2.81804h2.95495v2.81804z" fill-opacity="0.82178" fill="#35c0ed" stroke="#030303" stroke-width="0" stroke-miterlimit="4"/><path d="M240.24496,196.23684v-2.81804h2.95495v2.81804z" fill-opacity="0.82178" fill="#35c0ed" stroke="#030303" stroke-width="0" stroke-miterlimit="4"/><path d="M243.72202,182.97309v-2.81804h2.95495v2.81804z" fill-opacity="0.82178" fill="#35c0ed" stroke="#030303" stroke-width="0" stroke-miterlimit="4"/><path d="M240.24496,199.55291v-2.81805h2.95495v2.81805z" fill-opacity="0.82178" fill="#35c0ed" stroke="#030303" stroke-width="0" stroke-miterlimit="4"/><path d="M243.72202,186.28902v-2.81804h2.95495v2.81804z" fill-opacity="0.82178" fill="#35c0ed" stroke="#030303" stroke-width="0" stroke-miterlimit="4"/><path d="M240.24496,202.86883v-2.81804h2.95495v2.81804z" fill-opacity="0.82178" fill="#35c0ed" stroke="#030303" stroke-width="0" stroke-miterlimit="4"/><path d="M243.72202,189.605v-2.81804h2.95495v2.81804z" fill-opacity="0.82178" fill="#35c0ed" stroke="#030303" stroke-width="0" stroke-miterlimit="4"/><path d="M236.76793,196.23684v-2.81804h2.95495v2.81804z" fill-opacity="0.82178" fill="#35c0ed" stroke="#030303" stroke-width="0" stroke-miterlimit="4"/><path d="M229.81382,196.23684v-2.81804h2.95495v2.81804z" fill-opacity="0.82178" fill="#35c0ed" stroke="#030303" stroke-width="0" stroke-miterlimit="4"/><path d="M233.29087,196.23684v-2.81804h2.95495v2.81804z" fill-opacity="0.82178" fill="#35c0ed" stroke="#030303" stroke-width="0" stroke-miterlimit="4"/><path d="M229.81382,199.55291v-2.81804h2.95495v2.81804z" fill-opacity="0.82178" fill="#35c0ed" stroke="#030303" stroke-width="0" stroke-miterlimit="4"/><path d="M243.72201,169.70929v-2.81804h2.95495v2.81804z" fill-opacity="0.82178" fill="#35c0ed" stroke="#030303" stroke-width="0" stroke-miterlimit="4"/><path d="M229.81382,202.86883v-2.81804h2.95495v2.81804z" fill-opacity="0.82178" fill="#35c0ed" stroke="#030303" stroke-width="0" stroke-miterlimit="4"/><path d="M243.72201,173.02518v-2.81804h2.95495v2.81804z" fill-opacity="0.82178" fill="#35c0ed" stroke="#030303" stroke-width="0" stroke-miterlimit="4"/><path d="M229.81382,206.18474v-2.81804h2.95495v2.81804z" fill-opacity="0.82178" fill="#35c0ed" stroke="#030303" stroke-width="0" stroke-miterlimit="4"/><path d="M243.72201,176.34117v-2.81804h2.95495v2.81804z" fill-opacity="0.82178" fill="#35c0ed" stroke="#030303" stroke-width="0" stroke-miterlimit="4"/><path d="M222.85974,206.18474v-2.81804h2.95495v2.81804z" fill-opacity="0.82178" fill="#35c0ed" stroke="#030303" stroke-width="0" stroke-miterlimit="4"/><path d="M222.85974,202.86883v-2.81804h2.95495v2.81804z" fill-opacity="0.82178" fill="#35c0ed" stroke="#030303" stroke-width="0" stroke-miterlimit="4"/><path d="M226.33679,209.50066v-2.81804h2.95495v2.81804z" fill-opacity="0.82178" fill="#35c0ed" stroke="#030303" stroke-width="0" stroke-miterlimit="4"/><path d="M233.29088,209.50066v-2.81804h2.95495v2.81804z" fill-opacity="0.82178" fill="#35c0ed" stroke="#030303" stroke-width="0" stroke-miterlimit="4"/><path d="M229.81382,209.50066v-2.81804h2.95495v2.81804z" fill-opacity="0.82178" fill="#35c0ed" stroke="#030303" stroke-width="0" stroke-miterlimit="4"/><path d="M243.72203,200.05074h2.95493l-2.95493,2.81804z" fill-opacity="0.82178" fill="#35c0ed" stroke="none" stroke-width="1.01034" stroke-miterlimit="10"/><path d="M240.24498,203.36671h2.95494l-2.95494,2.81804z" fill-opacity="0.82178" fill="#35c0ed" stroke="none" stroke-width="1.01034" stroke-miterlimit="10"/><path d="M236.76793,206.68266h2.95496l-2.95496,2.81803z" fill-opacity="0.82178" fill="#35c0ed" stroke="none" stroke-width="1.01034" stroke-miterlimit="10"/><path d="M225.82678,206.69475v2.95495l-2.81804,-2.95495z" fill-opacity="0.82178" fill="#35c0ed" stroke="none" stroke-width="1.01034" stroke-miterlimit="10"/><path d="M225.8147,199.55284h-2.95495l2.95495,-2.81803z" fill-opacity="0.82178" fill="#35c0ed" stroke="none" stroke-width="1.01034" stroke-miterlimit="10"/><path d="M229.29174,196.2369h-2.95495l2.95495,-2.81806z" fill-opacity="0.82178" fill="#35c0ed" stroke="none" stroke-width="1.01034" stroke-miterlimit="10"/><path d="M243.72202,199.55291v-2.81805h2.95495v2.81805z" fill-opacity="0.82178" fill="#35c0ed" stroke="#030303" stroke-width="0" stroke-miterlimit="4"/><path d="M247.18695,153.11741v-2.95494l2.81806,2.95494z" fill-opacity="0.82178" fill="#35c0ed" stroke="none" stroke-width="1.01034" stroke-miterlimit="10"/><path d="M250.664,156.43335v-2.95493l2.81806,2.95493z" fill-opacity="0.82178" fill="#35c0ed" stroke="none" stroke-width="1.01034" stroke-miterlimit="10"/><path d="M254.14106,159.74932v-2.95495l2.81805,2.95495z" fill-opacity="0.82178" fill="#35c0ed" stroke="none" stroke-width="1.01034" stroke-miterlimit="10"/><path d="M257.45703,163.22637v-2.95496l2.81804,2.95496z" fill-opacity="0.82178" fill="#35c0ed" stroke="none" stroke-width="1.01034" stroke-miterlimit="10"/><path d="M256.95911,160.2714v2.95496l-2.81805,-2.95496z" fill-opacity="0.82178" fill="#35c0ed" stroke="none" stroke-width="1.01034" stroke-miterlimit="10"/><path d="M260.79191,179.37347h2.95495l-2.95495,2.81806z" fill-opacity="0.82178" fill="#35c0ed" stroke="none" stroke-width="1.01034" stroke-miterlimit="10"/><path d="M257.36585,182.64082h2.95493l-2.95493,2.81806z" fill-opacity="0.82178" fill="#35c0ed" stroke="none" stroke-width="1.01034" stroke-miterlimit="10"/><path d="M260.32077,182.19153h-2.95493l2.95493,-2.81805z" fill-opacity="0.82178" fill="#35c0ed" stroke="none" stroke-width="1.01034" stroke-miterlimit="10"/><path d="M260.87127,175.81219v-2.58332h2.70882v2.58332z" fill-opacity="0.82178" fill="#35c0ed" stroke="#030303" stroke-width="0" stroke-miterlimit="4"/><path d="M260.87127,172.77958v-2.58332h2.70882v2.58332z" fill-opacity="0.82178" fill="#35c0ed" stroke="#030303" stroke-width="0" stroke-miterlimit="4"/><path d="M260.27507,163.74846v2.95495l-2.81804,-2.95495z" fill-opacity="0.82178" fill="#35c0ed" stroke="none" stroke-width="1.01034" stroke-miterlimit="10"/><path d="M260.77298,166.70342v-2.95495l2.81804,2.95495z" fill-opacity="0.82178" fill="#35c0ed" stroke="none" stroke-width="1.01034" stroke-miterlimit="10"/><path d="M260.87127,178.8448v-2.58332h2.70882v2.58332z" fill-opacity="0.82178" fill="#35c0ed" stroke="#030303" stroke-width="0" stroke-miterlimit="4"/><path d="M260.87127,169.74697v-2.58332h2.70882v2.58332z" fill-opacity="0.82178" fill="#35c0ed" stroke="#030303" stroke-width="0" stroke-miterlimit="4"/></g></g></svg>